<svg width="47" height="47" viewBox="0 0 47 47" fill="white" xmlns="http://www.w3.org/2000/svg">
    <path d="M14.5188 18.3872C14.2669 18.3872 14.015 18.2909 13.8209 18.0997C13.4179 17.6982 13.3794 16.3749 13.4179 15.3347C13.4416 14.6946 13.535 14.2012 13.9113 13.8782C14.2418 13.5937 14.6552 13.241 17.5668 14.339C18.0781 14.5316 18.3359 15.1021 18.1432 15.6133C17.9506 16.1245 17.3801 16.3823 16.8689 16.1897C16.3607 15.9971 15.8109 15.8193 15.3901 15.7037C15.3946 16.2297 15.439 16.8936 15.4761 17.1484C15.562 17.4759 15.4761 17.8389 15.2197 18.0953C15.0271 18.2894 14.7737 18.3872 14.5188 18.3872Z" fill="white"/>
    <path d="M33.679 18.3872C33.9309 18.3872 34.1828 18.2909 34.3769 18.0997C34.7799 17.6982 34.8185 16.3749 34.7799 15.3347C34.7562 14.6946 34.6629 14.2012 34.285 13.8782C33.9546 13.5937 33.5412 13.241 30.6295 14.339C30.1183 14.5316 29.8605 15.1021 30.0531 15.6133C30.2457 16.1245 30.8162 16.3823 31.3274 16.1897C31.8357 15.9971 32.3854 15.8193 32.8062 15.7037C32.8018 16.2297 32.7573 16.8936 32.7203 17.1484C32.6343 17.4759 32.7203 17.8389 32.9766 18.0953C33.1707 18.2894 33.4241 18.3872 33.679 18.3872Z" fill="white"/>
    <path d="M37.9385 19.3742C37.8615 18.9712 37.774 18.5178 37.7622 18.3844C37.7652 18.3029 37.78 18.0881 37.7948 17.8954C38.0245 14.7985 38.023 11.7848 36.4538 10.7177C35.0298 9.74862 32.401 10.4184 29.8288 11.1904C29.6139 11.2541 29.3783 11.3237 29.2138 11.3712C27.0401 10.4406 24.2127 10.4213 24.0868 10.4213H24.0808C23.9579 10.4213 21.1277 10.4421 18.9538 11.3712C18.7878 11.3237 18.5537 11.2541 18.3374 11.1904C15.7651 10.4184 13.1364 9.74862 11.7124 10.7162C10.1447 11.7846 10.1417 14.7971 10.3713 17.8954C10.3862 18.0881 10.401 18.3029 10.4039 18.3844C10.3921 18.5178 10.3047 18.9712 10.2276 19.3743C9.76828 21.8029 8.80808 26.86 9.90311 29.6697C12.3095 35.8338 19.8207 36.7541 24.0837 36.7541C28.3466 36.7541 35.8577 35.8339 38.2627 29.6712C39.3577 26.8618 38.3979 21.8031 37.9385 19.3742ZM36.4182 28.9539C35.5351 31.221 33.7244 32.6242 31.6572 33.4823C31.6172 33.4897 31.5802 33.5001 31.5432 33.5149C31.3135 33.6024 31.1653 33.5653 31.1031 33.4068C31.0808 33.3445 31.0734 33.2749 31.0912 33.2067C35.6936 30.6714 35.1201 25.5044 35.0059 24.7279C35.0015 24.6775 34.994 24.6494 34.994 24.636C34.9911 24.6301 34.9911 24.6286 34.9911 24.6286C34.7244 22.6223 33.007 21.0101 32.1357 20.3077H32.1328C31.9179 20.1343 31.7564 20.0187 31.6808 19.9609C31.6734 19.958 31.666 19.9535 31.6631 19.9506C31.6334 19.9298 31.6008 19.9135 31.5742 19.8942C31.5712 19.8913 31.5667 19.8913 31.5623 19.8898V19.8868C31.5593 19.8868 31.5579 19.8839 31.5549 19.8839C31.0259 19.5742 30.4243 19.3994 29.7812 19.3994C27.7601 19.3994 26.1183 21.136 26.1183 23.2727C26.1183 24.2299 26.6769 25.2568 27.6001 25.8925C27.6282 25.9117 27.6593 25.9325 27.689 25.9517C27.7216 25.9695 27.7527 25.9873 27.7882 26.0006C27.7912 26.0036 27.9216 26.0629 28.0994 26.1844C28.4876 26.4511 29.1055 27.0127 29.1055 27.8854C29.1055 28.2514 29.0433 28.5567 28.944 28.813C28.3824 29.7184 27.7393 30.234 27.0399 30.3467C26.0116 30.5096 25.0292 29.8043 24.7921 29.6221C24.7862 29.6161 24.7802 29.6102 24.7743 29.6072C25.3463 29.2368 25.7538 28.5167 25.8456 28.2944C26.1775 27.4928 25.8086 26.9993 25.6308 26.823C25.1581 26.3503 24.3728 26.2985 24.0586 26.2985C23.6067 26.2985 22.9725 26.3903 22.5398 26.823C22.402 26.9608 21.9767 27.478 22.3205 28.3033C22.4391 28.5937 22.8421 29.2413 23.374 29.5924C22.9414 29.8265 21.7915 30.3689 20.7424 30.1051C20.129 29.9525 19.6341 29.5361 19.234 28.8323C19.1332 28.573 19.068 28.2603 19.068 27.8869C19.068 27.0156 19.6696 26.4629 20.0593 26.1933L20.0623 26.1903C20.2386 26.0703 20.372 26.008 20.3868 26.0021C20.4209 25.9873 20.4535 25.9695 20.4861 25.9532C20.5157 25.9354 20.9484 25.5917 20.9751 25.5694C21.8982 24.9338 22.0568 24.2314 22.0568 23.2742C22.0568 21.1375 20.415 19.4008 18.3939 19.4008C17.7434 19.4008 17.1299 19.5816 16.6009 19.8957C16.5713 19.915 16.5416 19.9328 16.512 19.952C16.5076 19.955 16.5016 19.9595 16.4942 19.9624C16.4676 19.9817 16.4276 20.0098 16.3801 20.0439C16.3179 20.0913 16.2364 20.1506 16.146 20.2217C16.1238 20.241 16.0986 20.2588 16.0749 20.278C16.0704 20.2825 16.0645 20.2884 16.0571 20.2928C15.1933 20.9848 13.4522 22.6074 13.181 24.6286C13.181 24.6286 13.181 24.6316 13.1781 24.636C13.1781 24.6405 13.1751 24.6464 13.1751 24.6538C13.1114 25.0465 12.2994 30.431 16.9166 33.1174C16.9832 33.1886 16.9655 33.319 16.9314 33.4064C16.8914 33.5101 16.758 33.5738 16.7061 33.562C14.559 32.7114 12.6625 31.2919 11.7524 28.9523C10.8619 26.6719 11.7821 21.8175 12.1748 19.7448C12.3333 18.921 12.3852 18.6276 12.3852 18.4023C12.3852 18.2645 12.3704 18.0586 12.3481 17.7489C12.0236 13.3953 12.5763 12.5285 12.8282 12.3551C13.335 12.0084 15.0005 12.2559 17.7713 13.0871C18.6544 13.3524 18.9211 13.4309 19.2427 13.379L19.3834 13.3568L19.5123 13.2931C21.2653 12.4455 23.9338 12.4055 24.0822 12.4025H24.0881C24.2363 12.4055 26.9079 12.444 28.6579 13.2931L28.7868 13.3568L28.9276 13.379C29.2491 13.4339 29.5158 13.3524 30.399 13.0871C33.1713 12.2559 34.8352 12.0114 35.342 12.3551C35.5939 12.5285 36.1481 13.3968 35.8221 17.7489C35.7999 18.0571 35.7851 18.263 35.7851 18.4023C35.7851 18.6276 35.8399 18.921 35.9955 19.7448C36.3882 21.8163 37.3068 26.6707 36.4178 28.9539L36.4182 28.9539Z" fill="white"/>
</svg>
